<svg xmlns="http://www.w3.org/2000/svg" xmlns:xlink="http://www.w3.org/1999/xlink" version="1.1" x="0px" y="0px" viewBox="0 0 100 125" enable-background="new 0 0 100 100" xml:space="preserve"><path d="M70.41,93.779H29.59c-0.808,0-1.511-0.553-1.701-1.339l-7.812-32.318c-2.635-0.416-4.672-3.057-4.672-6.243  c0-3.114,1.946-5.708,4.494-6.211c1.72-11.541,8.748-18.295,21.417-20.577c-0.18-0.64-0.275-1.31-0.275-1.999  c0-3.258,2.129-6.081,5.211-7.416l-2.879-9.182c-0.289-0.922,0.224-1.904,1.146-2.193c0.92-0.291,1.904,0.224,2.193,1.146  l2.955,9.423c0.199-0.011,0.4-0.017,0.602-0.017c5.089,0,9.229,3.696,9.229,8.238c0,0.852-0.146,1.674-0.416,2.448  c11.51,2.844,19.125,10.191,20.796,20.089c2.655,0.394,4.715,3.046,4.715,6.25c0,3.216-2.076,5.877-4.747,6.254l-7.737,32.304  C71.923,93.224,71.219,93.779,70.41,93.779z M30.968,90.279h38.062l6.262-26.146c-1.9,1.061-4.364,1.691-7.089,1.691  c-3.917,0-7.295-1.305-9.235-3.315c-1.94,2.01-5.318,3.315-9.237,3.315c-3.917,0-7.294-1.305-9.235-3.315  c-1.94,2.01-5.318,3.315-9.237,3.315c-2.47,0-4.725-0.519-6.541-1.406L30.968,90.279z M60.716,58.519  c0.048,1.809,3.109,3.805,7.486,3.805c4.384,0,7.447-2,7.485-3.809c-0.001-0.028-0.002-0.057-0.002-0.086  c0-0.966,0.784-1.75,1.75-1.75h1.76c1.03,0,1.899-1.282,1.899-2.8c0-1.518-0.87-2.8-1.899-2.8h-0.849  c-0.896,0-1.647-0.676-1.74-1.567c-1.008-9.591-8.115-16.426-19.546-18.847c-1.688,1.637-4.107,2.664-6.79,2.664  c-2.86,0-5.42-1.167-7.115-2.996c-12.419,1.879-18.77,7.99-19.965,19.182c-0.095,0.889-0.846,1.564-1.74,1.564h-0.646  c-1.03,0-1.899,1.282-1.899,2.8c0,1.518,0.87,2.8,1.899,2.8h1.219c0.966,0,1.75,0.784,1.75,1.75c0,0.03-0.001,0.061-0.002,0.091  c0.049,1.809,3.11,3.804,7.486,3.804c4.412,0,7.486-2.025,7.486-3.843c-0.042-0.488,0.125-0.923,0.457-1.284  c0.667-0.725,1.932-0.672,2.592,0.059c0.311,0.344,0.473,0.796,0.452,1.256c0.041,1.811,3.104,3.812,7.485,3.812  c4.412,0,7.486-2.025,7.486-3.843c-0.042-0.488,0.125-0.923,0.457-1.284c0.671-0.729,1.947-0.669,2.604,0.072  C60.582,57.614,60.739,58.063,60.716,58.519z M50.271,20.354c-3.159,0-5.729,2.125-5.729,4.738c0,2.612,2.57,4.738,5.729,4.738  S56,27.704,56,25.092C56,22.479,53.43,20.354,50.271,20.354z M49.825,88.004c-0.966,0-1.75-0.784-1.75-1.75v-16.9  c0-0.966,0.784-1.75,1.75-1.75s1.75,0.784,1.75,1.75v16.9C51.575,87.221,50.792,88.004,49.825,88.004z M61.22,87.819  c-0.128,0-0.258-0.014-0.389-0.044c-0.942-0.214-1.533-1.151-1.319-2.094l3.703-16.329c0.214-0.942,1.149-1.537,2.094-1.319  c0.942,0.214,1.533,1.151,1.319,2.094l-3.703,16.329C62.741,87.268,62.02,87.819,61.22,87.819z M38.78,87.819  c-0.799,0-1.521-0.551-1.705-1.363l-3.703-16.329c-0.214-0.943,0.377-1.88,1.319-2.094c0.946-0.217,1.88,0.377,2.094,1.319  l3.703,16.329c0.214,0.943-0.377,1.88-1.319,2.094C39.038,87.805,38.908,87.819,38.78,87.819z M50.271,59.675  c-0.747,0-1.385-0.468-1.636-1.127c-0.042-0.006-0.09-0.01-0.144-0.01c-0.966,0-1.75-0.784-1.75-1.75s0.784-1.75,1.75-1.75  c1.979,0,3.53,1.268,3.53,2.887C52.021,58.891,51.237,59.675,50.271,59.675z M69.103,58.538c-0.966,0-1.75-0.784-1.75-1.75  c0-1.878,1.283-3.35,2.921-3.35c0.966,0,1.75,0.784,1.75,1.75c0,0.764-0.49,1.414-1.172,1.652  C70.824,57.782,70.052,58.538,69.103,58.538z M26.211,55.496c-0.966,0-1.75-0.784-1.75-1.75c0-1.604,1.604-2.561,4.291-2.561  c0.966,0,1.75,0.784,1.75,1.75s-0.784,1.75-1.75,1.75c-0.515,0-0.913,0.063-1.148,0.121C27.284,55.226,26.779,55.496,26.211,55.496z   M43.188,51.538c-0.966,0-1.75-0.784-1.75-1.75c0-1.753,1.452-3.18,3.237-3.18c0.966,0,1.75,0.784,1.75,1.75  c0,0.886-0.659,1.619-1.513,1.734C44.768,50.913,44.051,51.538,43.188,51.538z M60.993,49.099c-0.966,0-1.75-0.784-1.75-1.75  c0-0.519-0.302-0.863-0.502-0.863c-0.966,0-1.75-0.784-1.75-1.75s0.784-1.75,1.75-1.75c2.207,0,4.002,1.958,4.002,4.363  C62.743,48.315,61.959,49.099,60.993,49.099z M31.734,43.962c-0.451,0-0.861-0.17-1.171-0.45c-0.31,0.279-0.721,0.45-1.171,0.45  c-0.966,0-1.75-0.784-1.75-1.75c0-1.562,1.311-2.832,2.921-2.832s2.921,1.27,2.921,2.832C33.484,43.179,32.701,43.962,31.734,43.962  z M45.35,41.349c-0.966,0-1.75-0.784-1.75-1.75c0-0.151-0.013-0.259-0.027-0.332c-0.508,0.053-1.079-0.137-1.451-0.509  c-0.328-0.328-0.543-0.779-0.543-1.243c0-0.622,0.429-1.797,2.054-1.797c0.473,0,1.387,0.102,2.199,0.787  c0.578,0.488,1.268,1.421,1.268,3.095C47.1,40.565,46.316,41.349,45.35,41.349z M64.57,40.187c-0.845,0-1.549-0.599-1.714-1.395  c-0.126-0.061-0.359-0.137-0.697-0.137c-0.966,0-1.75-0.784-1.75-1.75s0.784-1.75,1.75-1.75c2.333,0,4.161,1.441,4.161,3.282  C66.32,39.403,65.537,40.187,64.57,40.187z M52.242,28.269c-0.474,0-0.947-0.191-1.292-0.569c-0.581-0.635-0.605-1.583-0.099-2.243  c-0.036-0.083-0.105-0.193-0.223-0.286c-0.171-0.134-0.381-0.173-0.641-0.123c-0.948,0.184-1.869-0.43-2.056-1.378  c-0.187-0.948,0.43-1.869,1.378-2.056c2.215-0.436,3.93,0.805,4.649,2.229c0.719,1.422,0.503,3.017-0.536,3.967  C53.087,28.117,52.664,28.269,52.242,28.269z"/><!-- <text x="0" y="115" fill="#000000" font-size="5px" font-weight="bold" font-family="'Helvetica Neue', Helvetica, Arial-Unicode, Arial, Sans-serif">Created by Hugo Alberto</text><text x="0" y="120" fill="#000000" font-size="5px" font-weight="bold" font-family="'Helvetica Neue', Helvetica, Arial-Unicode, Arial, Sans-serif">from the Noun Project</text> --></svg>